<svg width="720" height="629" viewBox="0 0 720 629" fill="none" xmlns="http://www.w3.org/2000/svg">
<path fill-rule="evenodd" clip-rule="evenodd" d="M426.755 -205.371C526.01 -200.881 630.416 -165.761 691.019 -92.6437C747.053 -25.0382 709.403 70.9576 725.408 154.958C738.276 222.491 786.302 282.395 775.404 350.226C763.332 425.374 724.842 497.088 662.532 546.343C597.271 597.931 510.835 641.277 426.755 625.831C345.261 610.859 319.875 512.674 250.249 470.602C174.069 424.57 41.2528 449.798 6.43092 371.848C-27.6816 295.486 83.9568 228.407 106.308 148.384C131.067 59.7418 79.6084 -47.3468 143.094 -117.431C208.865 -190.039 324.689 -209.988 426.755 -205.371Z" fill="#6DB9FF"/>
</svg>
